<?xml version="1.0" encoding="utf-8"?>
<!-- Generator: Adobe Illustrator 25.0.1, SVG Export Plug-In . SVG Version: 6.00 Build 0)  -->
<svg version="1.0" id="Layer_1" xmlns="http://www.w3.org/2000/svg" xmlns:xlink="http://www.w3.org/1999/xlink" x="0px" y="0px"
	 viewBox="0 0 251 156" style="enable-background:new 0 0 251 156;" xml:space="preserve">
<style type="text/css">
	.st0{fill:#0CACD3;}
	.st1{fill:#16527E;}
	.st2{fill:none;}
</style>
<path class="st0" d="M209,98.7L33.5,96.8h174l10-39.5L209,98.7"/>
<path class="st1" d="M203.4,67.5c0-1,0.8-1.9,1.9-1.9c1,0,1.9,0.8,1.9,1.9s-0.8,1.9-1.9,1.9c0,0,0,0,0,0
	C204.3,69.4,203.4,68.6,203.4,67.5C203.4,67.6,203.4,67.6,203.4,67.5z M205.3,69.1c0.9,0,1.6-0.7,1.6-1.5c0-0.9-0.7-1.6-1.5-1.6
	s-1.6,0.7-1.6,1.5c0,0,0,0,0,0C203.7,68.4,204.4,69.1,205.3,69.1C205.2,69.1,205.3,69.1,205.3,69.1z M204.9,68.6h-0.3v-2.1h0.8
	c0.5,0,0.8,0.2,0.8,0.6c0,0.3-0.2,0.6-0.5,0.6c0,0,0,0,0,0l0.6,1h-0.4l-0.6-0.9h-0.4L204.9,68.6L204.9,68.6z M205.3,67.4h-0.4v-0.7
	h0.4c0.2,0,0.5,0.1,0.5,0.3S205.6,67.4,205.3,67.4L205.3,67.4z M96.8,70.3c3.7,0,5.5,3.4,4.6,6.9l-0.6,2.6H90.3
	c-0.9,3.8,0.3,4.3,3,4.3h6.3l-1,3.9h-7.2c-2.9,0-4.7-1.2-5.5-3s-0.8-4.3-0.2-6.8c0.9-3.9,2.3-7.9,8.6-7.9L96.8,70.3z M97.3,76.9
	c0,0,0.9-3.2-2.2-3.2h-0.6c-2,0-2.8,0.7-3.4,3.2H97.3z M135.2,74.6c-0.4,1.8-3.3,13.4-3.3,13.4h-5.1c0,0,2.8-11.1,3.2-12.7
	c0.3-1.2-0.2-1.6-1.2-1.6h-4.2c0,0,0.6,0.6,0.5,1.1L121.7,88h-5.1l5-20.2c0.1-0.8-0.2-1.6-0.8-2.1h6.4l-1.2,4.6h5.9
	C135.1,70.3,135.8,72.2,135.2,74.6z M83.3,69.5c0,0,0.6,0.5,0.4,1.1C83.6,71.2,79.4,88,79.4,88h-5.8l4.6-18.5h-6.8l0.9-3.8h18.8
	l-0.9,3.8L83.3,69.5z M154.8,65.7c3.1,0,6.3,2.8,5.3,7.6c-0.7,3.3-1.6,6.6-2.8,9.8c-1.2,2.8-3,4.9-7.3,4.9h-12.2
	c0,0,4.3-17.4,5.1-20.2c0-0.8-0.3-1.5-0.8-2.1L154.8,65.7z M154.7,72c0.4-1.6-0.9-2.6-2.4-2.6h-4.9c0.3,0.3,0.5,0.7,0.5,1.2
	c-0.2,0.6-3.4,13.5-3.4,13.5h4.4c2,0,2.9-0.7,3.5-2.9C152.9,79.3,154.3,73.6,154.7,72z M172.7,70.3c3.1,0,3.8,1.9,3.2,4.3
	S172.6,88,172.6,88h-8.5c-2.7-0.1-4.8-2.2-4.9-4.9c0-0.4,0-0.7,0.1-1.1c0.1-0.2,0.1-0.4,0.1-0.6c1.1-4.4,4.6-5.4,7.3-5.4h3.8
	l0.2-0.8c0.2-1-0.4-1.4-1.2-1.4h-6.9l0.9-3.4L172.7,70.3z M168.5,84.2l1.2-5h-3.1c-1.5-0.2-2.9,0.9-3.2,2.4c-0.5,2,0.7,2.6,2.2,2.6
	L168.5,84.2z M200.6,70.3c3.1,0,3.8,1.9,3.2,4.3S200.5,88,200.5,88H192c-2.7-0.1-4.8-2.2-4.9-4.9c0-0.4,0-0.7,0.1-1.1
	c0-0.2,0.1-0.4,0.1-0.6c1.1-4.4,4.6-5.4,7.3-5.4h3.8l0.2-0.8c0.2-1-0.4-1.4-1.2-1.4h-6.9l0.9-3.4L200.6,70.3z M196.4,84.2l1.2-5
	h-3.1c-1.5-0.2-2.9,0.9-3.2,2.4c-0.5,2,0.7,2.6,2.2,2.6L196.4,84.2z M107.9,78.3c-0.9,3.4-0.7,5.9,2.4,5.9h4.9l-1,3.9h-5.8
	c-2.9,0-4.7-1.2-5.5-3s-0.8-4.3-0.2-6.8c1-3.9,2.3-7.9,8.6-7.9h7.3l-0.9,3.4h-5.6C110.3,73.8,108.8,74.9,107.9,78.3z M182.9,84.2
	h2.8l-0.9,3.9h-6.2c-1.1,0-2.2-0.9-1.7-2.7c0.3-1.4,2.9-11.6,2.9-11.6h-2.2l0.9-3.4h2.2l0.3-1.3c0.2-1-0.8-2.1-0.8-2.1h6.3l-0.8,3.4
	h3.3l-0.9,3.4h-4c0,0,0.6,0.6,0.4,1.1l-2.1,8.3C182.1,83.6,182.2,84.1,182.9,84.2L182.9,84.2z"/>
<path class="st0" d="M59.6,65.7c3.1,0,6.3,2.8,5.3,7.6c-0.5,2.2-1,4.1-1.2,4.9c-0.8,2.7-3,4.4-7.3,5.8l-16.3,5.2l1.4-5.6l13.9-4.4
	c1.8-0.3,3.1-1.8,3.4-3.5c0.5-1.9,0.5-2,0.8-3.6s-0.8-2.6-2.3-2.6h-1.2l0.9-3.8L59.6,65.7z M41.3,65.7h14.2l-1,3.8h-4.7
	c0,0,0.6,0.6,0.5,1L48,80l-6.1,1.9L45,69.5h-4.6L41.3,65.7z"/>
<rect x="28" y="51" class="st2" width="195" height="54"/>
</svg>
